<svg xmlns="http://www.w3.org/2000/svg" viewBox="0 0 1200 600" width="100%" height="100%">
  <style>
    .bg { fill: #fafafa; }
    .text-title { font-family: 'Plus Jakarta Sans', -apple-system, sans-serif; font-size: 22px; font-weight: 700; fill: #18181b; }
    .text-subtitle { font-family: 'Plus Jakarta Sans', -apple-system, sans-serif; font-size: 14px; font-weight: 500; fill: #71717a; }
    .text-body { font-family: 'Plus Jakarta Sans', -apple-system, sans-serif; font-size: 13px; fill: #27272a; }
    .text-code { font-family: 'Geist Mono', 'Courier New', monospace; font-size: 11px; fill: #0969da; }
    .text-badge { font-family: 'Plus Jakarta Sans', -apple-system, sans-serif; font-size: 11px; font-weight: 600; fill: #ffffff; }

    .box { fill: #ffffff; stroke: #e4e4e7; stroke-width: 1.5; rx: 12px; }
    .box-inner { fill: #fafafa; stroke: #e4e4e7; stroke-width: 1px; rx: 6px; }
    .box-accent { fill: #eff6ff; stroke: #bfdbfe; stroke-width: 1.5; rx: 12px; }

    .arrow { stroke: #a1a1aa; stroke-width: 1.5; fill: none; stroke-dasharray: 4 4; }
    .arrow-solid { stroke: #3b7bff; stroke-width: 2; fill: none; }
    .arrow-head { fill: #3b7bff; }
    .arrow-head-gray { fill: #a1a1aa; }

    .accent-fill { fill: #3b7bff; }
    .accent-stroke { stroke: #3b7bff; }

    .status-running { fill: #3b7bff; }
    .status-completed { fill: #10b981; }

    @media (prefers-color-scheme: dark) {
      .bg { fill: #09090b; }
      .text-title { fill: #f4f4f5; }
      .text-subtitle { fill: #a1a1aa; }
      .text-body { fill: #d4d4d8; }
      .text-code { fill: #5b9bff; }

      .box { fill: #18181b; stroke: #27272a; }
      .box-inner { fill: #27272a; stroke: #3f3f46; }
      .box-accent { fill: #1e3a8a; stroke: #1d4ed8; }

      .arrow { stroke: #52525b; }
      .arrow-solid { stroke: #5b9bff; }
      .arrow-head { fill: #5b9bff; }
      .arrow-head-gray { fill: #52525b; }

      .accent-fill { fill: #5b9bff; }
      .accent-stroke { stroke: #5b9bff; }
    }
  </style>

  <!-- Background -->
  <rect class="bg" width="100%" height="100%" rx="16" />

  <!-- Section 1: Workflow Definition -->
  <g transform="translate(50, 80)">
    <!-- Main Box -->
    <rect class="box" width="340" height="440" />
    <text class="text-title" x="24" y="44">Workflow Definition</text>
    <text class="text-subtitle" x="24" y="68">Cấu hình quy trình (Dữ liệu tĩnh)</text>

    <!-- Code block simulation -->
    <rect class="box-inner" x="20" y="105" width="300" height="312" />

    <g transform="translate(28, 110)">
      <text class="text-code" x="0" y="20">{</text>
      <text class="text-code" x="10" y="40">"id": "purchase_request",</text>
      <text class="text-code" x="10" y="60">"steps": [</text>
      <text class="text-code" x="20" y="80">{"id": "draft", "role": "Staff"},</text>
      <text class="text-code" x="20" y="100">{"id": "mgr", "role": "Manager"},</text>
      <text class="text-code" x="20" y="120">{"id": "dir", "role": "Director"},</text>
      <text class="text-code" x="20" y="140">{"id": "pay", "role": "Accountant"}</text>
      <text class="text-code" x="10" y="160">],</text>
      <text class="text-code" x="10" y="180">"transitions": [</text>
      <text class="text-code" x="20" y="200">{"from": "draft", "to": "mgr"},</text>
      <text class="text-code" x="20" y="220">{"from": "mgr", "to": "dir",</text>
      <text class="text-code" x="30" y="240">"condition": "amount > 10M"},</text>
      <text class="text-code" x="20" y="260">{"from": "mgr", "to": "pay"}</text>
      <text class="text-code" x="10" y="280">]</text>
      <text class="text-code" x="0" y="300">}</text>
    </g>
  </g>

  <!-- Section 2: Workflow Engine -->
  <g transform="translate(430, 80)">
    <!-- Main Box -->
    <rect class="box" width="340" height="440" />
    <text class="text-title" x="24" y="44">Workflow Engine</text>
    <text class="text-subtitle" x="24" y="68">Bộ máy xử lý trung tâm (Runtime)</text>

    <!-- Gear / Core Icon Visual -->
    <g transform="translate(170, 180)">
      <!-- Outer circular dashboard -->
      <circle cx="0" cy="0" r="50" class="border-line" style="stroke-width: 2; fill: none; stroke: #e4e4e7;" />
      <circle cx="0" cy="0" r="40" class="accent-stroke" style="stroke-width: 3; fill: none; stroke-dasharray: 180 80;" />

      <!-- Core processor gear representation -->
      <path d="M-10,-25 L10,-25 L15,-15 L25,-10 L25,10 L15,15 L10,25 L-10,25 L-15,15 L-25,10 L-25,-10 L-15,-15 Z" class="accent-fill" />
      <circle cx="0" cy="0" r="12" fill="#ffffff" />
      <circle cx="0" cy="0" r="6" class="accent-fill" />
    </g>

    <!-- Process lists -->
    <g transform="translate(20, 270)">
      <!-- Step 1: Parse Definition -->
      <rect class="box-inner" x="0" y="0" width="300" height="40" />
      <circle cx="20" cy="20" r="8" class="accent-fill" />
      <text class="text-badge" x="17" y="24">1</text>
      <text class="text-body" style="font-weight: 600;" x="38" y="24">Đọc &amp; Phân tích Quy trình</text>

      <!-- Step 2: Evaluate Conditions -->
      <rect class="box-inner" x="0" y="52" width="300" height="40" />
      <circle cx="20" cy="72" r="8" class="accent-fill" />
      <text class="text-badge" x="16" y="76">2</text>
      <text class="text-body" style="font-weight: 600;" x="38" y="76">Kiểm tra Điều kiện (Rules)</text>

      <!-- Step 3: Transition State -->
      <rect class="box-inner" x="0" y="104" width="300" height="40" />
      <circle cx="20" cy="124" r="8" class="accent-fill" />
      <text class="text-badge" x="16" y="128">3</text>
      <text class="text-body" style="font-weight: 600;" x="38" y="128">Chuyển trạng thái (State)</text>
    </g>
  </g>

  <!-- Section 3: Runtime Instances -->
  <g transform="translate(810, 80)">
    <!-- Main Box -->
    <rect class="box" width="340" height="440" />
    <text class="text-title" x="24" y="44">Runtime Instances</text>
    <text class="text-subtitle" x="24" y="68">Các thực thể chạy thực tế (Dữ liệu động)</text>

    <!-- Instance 1 -->
    <g transform="translate(20, 110)">
      <rect class="box" style="stroke-width: 1px;" width="300" height="130" />

      <circle cx="24" cy="28" r="6" class="status-running" />
      <text class="text-body" style="font-weight: bold; font-size: 14px;" x="40" y="32">Instance #101</text>
      <text class="text-subtitle" x="232" y="32">Running</text>

      <line x1="16" y1="48" x2="284" y2="48" style="stroke: #e4e4e7; stroke-width: 1;" />

      <text class="text-body" x="16" y="72">Quy trình: purchase_request</text>
      <text class="text-body" x="16" y="94">Trạng thái hiện tại: </text>
      <text class="text-body" style="font-weight: bold; fill: #3b7bff;" x="140" y="94">mgr</text>
      <text class="text-body" x="16" y="114">Dữ liệu: Amount = 8,500,000đ</text>
    </g>

    <!-- Instance 2 -->
    <g transform="translate(20, 265)">
      <rect class="box" style="stroke-width: 1px;" width="300" height="130" />

      <circle cx="24" cy="28" r="6" class="status-completed" />
      <text class="text-body" style="font-weight: bold; font-size: 14px;" x="40" y="32">Instance #102</text>
      <text class="text-subtitle" x="215" y="32">Completed</text>

      <line x1="16" y1="48" x2="284" y2="48" style="stroke: #e4e4e7; stroke-width: 1;" />

      <text class="text-body" x="16" y="72">Quy trình: purchase_request</text>
      <text class="text-body" x="16" y="94">Trạng thái hiện tại: </text>
      <text class="text-body" style="font-weight: bold; fill: #10b981;" x="140" y="94">pay</text>
      <text class="text-body" x="16" y="114">Dữ liệu: Amount = 15,000,000đ</text>
    </g>
  </g>

  <!-- Connectors -->
  <!-- Definition -> Engine -->
  <path class="arrow-solid" d="M390,300 L430,300" />
  <polygon class="arrow-head" points="430,300 422,295 422,305" />
  <text class="text-subtitle" style="font-size: 11px; text-anchor: middle;" x="410" y="285">Load</text>

  <!-- Engine -> Instances -->
  <path class="arrow-solid" d="M770,300 L810,300" />
  <polygon class="arrow-head" points="810,300 802,295 802,305" />
  <text class="text-subtitle" style="font-size: 11px; text-anchor: middle;" x="790" y="285">Control</text>
</svg>
